# xmcd CD database file
#
# Track frame offsets:
#	150
#	30372
#	50907
#	69200
#	91960
#	105654
#	133982
#	164232
#	185762
#	217940
#	248217
#
# Disc length: 3607 seconds
#
# Revision: 0
# Processed by: cddbd v1.5.2PL0 Copyright (c) Steve Scherf et al.
# Submitted via: CDex 1.70beta2
#
DISCID=a00e150b
DTITLE=Sarko, Albert - Blues and Views
DYEAR=1993
DGENRE=Jazz
TTITLE0=L.W. Blues
TTITLE1=Common crisis
TTITLE2=Blue nature
TTITLE3=x-X'mas
TTITLE4=Slidin' with the back-force
TTITLE5=Where's Abbie Hoffman when we need him ?
TTITLE6=Straight ahead to war blues (for Art Blakey)
TTITLE7=Celia
TTITLE8=Whatever happende to you ?
TTITLE9=Ornette's message
TTITLE10=You never change
EXTD=YEAR: 1993
EXTT0=
EXTT1=
EXTT2=
EXTT3=
EXTT4=
EXTT5=
EXTT6=
EXTT7=
EXTT8=
EXTT9=
EXTT10=
PLAYORDER=
